<?xml version="1.0" encoding="utf-8"?>
<!-- Generator: Adobe Illustrator 15.0.0, SVG Export Plug-In  -->
<!DOCTYPE svg PUBLIC "-//W3C//DTD SVG 1.1//EN" "http://www.w3.org/Graphics/SVG/1.1/DTD/svg11.dtd" [
	<!ENTITY ns_flows "http://ns.adobe.com/Flows/1.0/">
]>
<svg version="1.1"
	 xmlns="http://www.w3.org/2000/svg" xmlns:xlink="http://www.w3.org/1999/xlink" xmlns:a="http://ns.adobe.com/AdobeSVGViewerExtensions/3.0/"
	 x="0px" y="0px" width="318px" height="139px" viewBox="0 0 318 139" enable-background="new 0 0 318 139" xml:space="preserve">
<defs>
</defs>
<path fill="#595959" d="M269.507,45.406v14.057h9.778v-5.419C276.688,50.515,273.225,47.681,269.507,45.406z"/>
<path fill="#595959" d="M215.423,23.348v36.115h9.785v-31.83C222.68,26.627,220.755,26.137,215.423,23.348z"/>
<path fill="#808080" d="M161.343,13.63v45.833h9.778V13.658C167.731,13.564,164.474,13.564,161.343,13.63z"/>
<path fill="#ACACAC" d="M39.663,53.194v6.269h9.778v-17.82C44.021,45.227,41.717,48.913,39.663,53.194z"/>
<path fill="#ACACAC" d="M86.791,27.807c-2.268,0.085-4.492,0.458-6.566,0.969v30.688h9.783V27.521
	C88.862,27.665,87.778,27.767,86.791,27.807z"/>
<path fill="#ACACAC" d="M53.181,39.459v20.004h9.783V35.28C59.028,36.691,55.827,38.078,53.181,39.459z"/>
<path fill="#737373" d="M188.384,15.065v44.397h9.781V16.925C194.557,16.089,191.106,15.483,188.384,15.065z"/>
<path fill="#737373" d="M182.732,14.313c-2.689-0.229-5.312-0.397-7.866-0.514v45.663h9.778V14.54
	C183.436,14.384,182.732,14.313,182.732,14.313z"/>
<path fill="#737373" d="M201.899,17.862v41.601h9.788V21.381C208.796,19.972,205.37,18.81,201.899,17.862z"/>
<path fill="#595959" d="M230.083,29.963c-0.406-0.218-0.782-0.416-1.14-0.601v30.101h9.78V32.876
	C234.534,31.37,230.083,29.963,230.083,29.963z"/>
<path fill="#9B9B9B" d="M120.783,19.34v40.123h9.778v-42.5C126.618,17.769,123.346,18.604,120.783,19.34z"/>
<path fill="#9B9B9B" d="M134.304,16.25v43.213h9.781V14.817C140.535,15.229,137.268,15.719,134.304,16.25z"/>
<path fill="#9B9B9B" d="M93.74,26.927v32.536h9.785V24.66C100.405,25.494,96.973,26.325,93.74,26.927z"/>
<path fill="#9B9B9B" d="M114.205,21.511c0,0-2.887,0.955-6.944,2.116v35.836h9.783V20.49
	C115.183,21.11,114.205,21.511,114.205,21.511z"/>
<path fill="#595959" d="M255.981,39.284v20.179h9.783V43.322C262.405,41.625,259.008,40.315,255.981,39.284z"/>
<path fill="#ACACAC" d="M68.639,33.384c-0.66,0.205-1.308,0.411-1.938,0.622v25.457h9.781V29.877
	C71.861,31.467,68.639,33.384,68.639,33.384z"/>
<path fill="#8A8A8A" d="M147.824,14.415v45.048h9.781V13.746C154.162,13.894,150.899,14.119,147.824,14.415z"/>
<path fill="#595959" d="M245.744,35.902c-0.492-0.404-1.719-0.98-3.28-1.615v25.176h9.788V38.081
	C248.807,37.025,246.323,36.378,245.744,35.902z"/>
<path opacity="0.4" fill="#2BB353" d="M53.181,0h-3.739v35.339c1.109-0.731,2.354-1.455,3.739-2.183V0z"/>
<path opacity="0.4" fill="#2BB353" d="M66.701,0h-3.737v28.976c1.179-0.424,2.42-0.85,3.737-1.274V0z"/>
<path opacity="0.4" fill="#2BB353" d="M80.225,0h-3.742v23.571c1.17-0.4,2.419-0.778,3.742-1.101V0z"/>
<path opacity="0.6" fill="#2BB353" d="M93.74,0h-3.732v21.218c1.188-0.154,2.445-0.354,3.732-0.596V0z"/>
<path opacity="0.6" fill="#2BB353" d="M107.261,0h-3.735v18.355c1.315-0.346,2.575-0.703,3.735-1.034V0z"/>
<path opacity="0.6" fill="#2BB353" d="M120.783,0h-3.739v14.186c0.995-0.326,2.249-0.721,3.739-1.15V0z"/>
<path fill="#2BB353" d="M134.304,0h-3.742v10.659c1.188-0.241,2.442-0.478,3.742-0.714V0z"/>
<path fill="#2BB353" d="M147.824,0h-3.739v8.512c1.216-0.14,2.457-0.28,3.739-0.401V0z"/>
<path fill="#2BB353" d="M161.343,0h-3.737v7.441c1.221-0.049,2.476-0.085,3.737-0.108V0z"/>
<path fill="#2BB353" d="M174.866,0h-3.745v7.356c1.234,0.036,2.48,0.079,3.745,0.139V0z"/>
<path fill="#2BB353" d="M188.384,0h-3.739v8.231c0.957,0.124,2.244,0.297,3.739,0.528V0z"/>
<path opacity="0.6" fill="#2BB353" d="M201.899,0h-3.734v10.621c1.238,0.286,2.49,0.602,3.734,0.939V0z"/>
<path opacity="0.6" fill="#2BB353" d="M215.423,17.047V0h-3.735v15.073c0.447,0.221,0.887,0.442,1.308,0.671
	C213.884,16.235,214.679,16.656,215.423,17.047z"/>
<path opacity="0.6" fill="#2BB353" d="M228.943,0h-3.735v21.328c1.041,0.421,2.194,0.931,3.735,1.725V0z"/>
<path opacity="0.4" fill="#2BB353" d="M242.464,0h-3.74v26.571c1.323,0.475,2.618,0.963,3.74,1.414V0z"/>
<path opacity="0.4" fill="#2BB353" d="M255.981,0h-3.729v31.774c1.143,0.355,2.401,0.752,3.729,1.208V0z"/>
<path opacity="0.4" fill="#2BB353" d="M269.507,0h-3.742v37.018c1.262,0.639,2.517,1.33,3.742,2.084V0z"/>
<path fill="#58595B" d="M6.525,128.881c2.646,3.578,6.31,5.371,10.992,5.371c3.745,0,6.954-1.281,9.625-3.842
	c2.672-2.563,4.007-5.826,4.007-9.793v-2.813c-3.58,3.967-8.013,5.951-13.302,5.951c-4.848,0-9.034-1.764-12.561-5.289
	C1.763,114.942,0,110.756,0,105.907c0-4.957,1.763-9.172,5.287-12.643c3.526-3.471,7.713-5.205,12.561-5.205
	c5.012,0,9.308,1.846,12.891,5.535l4.956-4.627v31.65c0,5.068-1.79,9.363-5.37,12.891c-3.58,3.525-7.851,5.287-12.807,5.287
	c-5.949,0-10.771-2.367-14.46-7.105L6.525,128.881z M17.848,92.604c-3.748,0-6.898,1.279-9.461,3.842
	c-2.562,2.563-3.842,5.715-3.842,9.461c0,3.748,1.28,6.898,3.842,9.461c2.563,2.561,5.713,3.842,9.461,3.842
	c3.689,0,6.83-1.293,9.42-3.883c2.587-2.588,3.882-5.729,3.882-9.42c0-3.689-1.295-6.83-3.882-9.42
	C24.678,93.899,21.537,92.604,17.848,92.604z"/>
<path fill="#58595B" d="M58.335,88.885l-2.066,4.049c-0.66-0.221-1.46-0.33-2.395-0.33c-2.536,0-4.616,0.855-6.241,2.561
	c-1.625,1.707-2.438,3.746-2.438,6.115v21.484H40.65V88.967l3.804,3.059c2.531-2.645,5.673-3.967,9.42-3.967
	C55.524,88.059,57.013,88.334,58.335,88.885z"/>
<path fill="#58595B" d="M88.949,118.219c-3.583,3.691-7.879,5.537-12.892,5.537c-4.847,0-9.033-1.764-12.558-5.289
	c-3.527-3.525-5.289-7.711-5.289-12.561c0-4.957,1.762-9.172,5.289-12.643c3.524-3.471,7.711-5.205,12.558-5.205
	c5.013,0,9.309,1.846,12.892,5.535l4.958-4.627v33.797L88.949,118.219z M76.058,92.604c-3.745,0-6.898,1.279-9.46,3.842
	c-2.563,2.563-3.842,5.715-3.842,9.461c0,3.748,1.279,6.898,3.842,9.461c2.562,2.561,5.715,3.842,9.46,3.842
	c3.692,0,6.83-1.293,9.42-3.883c2.59-2.588,3.885-5.729,3.885-9.42c0-3.689-1.295-6.83-3.885-9.42
	C82.888,93.899,79.75,92.604,76.058,92.604z"/>
<path fill="#58595B" d="M100.164,122.764V88.967l3.885,3.141c2.587-2.699,5.784-4.049,9.582-4.049c3.801,0,6.995,1.295,9.588,3.883
	c2.587,2.59,3.882,5.785,3.882,9.584v21.238h-4.542v-21.238c0-2.586-0.868-4.723-2.605-6.402c-1.734-1.68-3.842-2.52-6.322-2.52
	c-2.478,0-4.585,0.867-6.319,2.604c-1.734,1.734-2.603,3.842-2.603,6.318v21.238H100.164z"/>
<path fill="#58595B" d="M133.359,75.747h4.545v4.957h-4.545V75.747z M133.359,88.967h4.545v33.797h-4.545V88.967z"/>
<path fill="#58595B" d="M147.738,93.512h-6.114v-4.545h6.114v-9.502l4.545-2.23v11.732h6.03v4.545h-6.03v29.252h-4.545V93.512z"/>
<path fill="#58595B" d="M190.375,112.104l3.966,2.23c-1.488,2.811-3.636,5.082-6.444,6.816c-2.811,1.736-5.896,2.605-9.255,2.605
	c-4.847,0-9.034-1.764-12.561-5.289c-3.524-3.525-5.286-7.711-5.286-12.561c0-4.957,1.762-9.172,5.286-12.643
	c3.526-3.471,7.714-5.205,12.561-5.205c3.085,0,5.99,0.771,8.717,2.313c2.727,1.545,4.834,3.5,6.322,5.867l-23.055,20.326
	c2.313,1.764,4.986,2.645,8.016,2.645c2.534,0,4.835-0.631,6.898-1.9C187.607,116.042,189.217,114.309,190.375,112.104z
	 M167.569,113.344l19.748-17.518c-2.478-2.15-5.372-3.223-8.676-3.223c-3.747,0-6.901,1.279-9.46,3.842
	c-2.563,2.563-3.842,5.715-3.842,9.461C165.34,108.606,166.081,111.086,167.569,113.344z"/>
<path fill="#58595B" d="M228.466,94.504l-3.552,2.809c-2.702-3.139-6.089-4.709-10.164-4.709c-3.748,0-6.901,1.279-9.461,3.842
	c-2.562,2.563-3.844,5.715-3.844,9.461c0,3.748,1.282,6.898,3.844,9.461c2.56,2.561,5.713,3.842,9.461,3.842
	c4.02,0,7.325-1.486,9.915-4.463l3.636,2.813c-1.709,1.982-3.72,3.51-6.033,4.584c-2.313,1.074-4.818,1.613-7.518,1.613
	c-4.85,0-9.037-1.764-12.561-5.289c-3.527-3.525-5.287-7.711-5.287-12.561c0-4.957,1.76-9.172,5.287-12.643
	c3.523-3.471,7.711-5.205,12.561-5.205c2.808,0,5.37,0.551,7.683,1.652C224.746,90.815,226.757,92.411,228.466,94.504z"/>
<path fill="#58595B" d="M254.577,101.526c0-2.586-0.868-4.723-2.604-6.402c-1.734-1.68-3.842-2.52-6.322-2.52
	c-2.479,0-4.586,0.867-6.32,2.604c-1.733,1.734-2.603,3.842-2.603,6.318v21.238h-4.545V66.575h4.545v24.871
	c2.534-2.256,5.508-3.387,8.923-3.387c3.804,0,6.995,1.295,9.587,3.883c2.588,2.59,3.883,5.785,3.883,9.584v21.238h-4.543V101.526z"
	/>
<path fill="#58595B" d="M264.076,118.219h4.545v4.545h-4.545V118.219z"/>
<path fill="#24B255" d="M273.58,75.747h4.545v4.957h-4.545V75.747z M273.58,88.967h4.545v33.797h-4.545V88.967z"/>
<path fill="#24B255" d="M299.691,88.059c4.956,0,9.171,1.734,12.643,5.205c3.468,3.471,5.205,7.686,5.205,12.643
	c0,4.85-1.737,9.035-5.205,12.561c-3.472,3.525-7.687,5.289-12.643,5.289c-4.85,0-9.036-1.764-12.561-5.289
	c-3.526-3.525-5.289-7.711-5.289-12.561c0-4.957,1.763-9.172,5.289-12.643C290.655,89.793,294.842,88.059,299.691,88.059z
	 M299.691,92.604c-3.747,0-6.901,1.279-9.463,3.842c-2.56,2.563-3.842,5.715-3.842,9.461c0,3.748,1.282,6.898,3.842,9.461
	c2.562,2.561,5.716,3.842,9.463,3.842c3.689,0,6.828-1.293,9.42-3.883c2.588-2.588,3.883-5.729,3.883-9.42
	c0-3.689-1.295-6.83-3.883-9.42C306.52,93.899,303.381,92.604,299.691,92.604z"/>
</svg>
